<svg width="48" height="48" viewBox="0 0 48 48" fill="none" xmlns="http://www.w3.org/2000/svg">
<g clip-path="url(#clip0_2_1397)">
<rect width="48" height="48" fill="#CAF368"/>
<path d="M11.9983 34.498L34.4998 11.9998L69.2853 50.3278L45.5451 71.7769L11.9983 34.498Z" fill="#08472C"/>
<circle cx="24" cy="24" r="16" fill="white"/>
<path d="M22.8587 16.5125C23.218 15.4069 24.782 15.4069 25.1413 16.5125L26.2002 19.7716C26.3609 20.2661 26.8216 20.6008 27.3415 20.6008H30.7684C31.9309 20.6008 32.4142 22.0884 31.4737 22.7716L28.7013 24.7859C28.2807 25.0915 28.1048 25.6331 28.2654 26.1276L29.3244 29.3867C29.6836 30.4923 28.4182 31.4116 27.4778 30.7284L24.7053 28.7141C24.2848 28.4085 23.7152 28.4085 23.2947 28.7141L20.5222 30.7284C19.5818 31.4116 18.3164 30.4923 18.6756 29.3867L19.7346 26.1276C19.8952 25.6331 19.7193 25.0915 19.2987 24.7859L16.5263 22.7716C15.5858 22.0883 16.0691 20.6008 17.2316 20.6008H20.6585C21.1784 20.6008 21.6391 20.2661 21.7998 19.7716L22.8587 16.5125Z" fill="#08472C"/>
</g>
<defs>
<clipPath id="clip0_2_1397">
<rect width="48" height="48" fill="white"/>
</clipPath>
</defs>
</svg>
