<svg width="48" height="48" viewBox="0 0 48 48" fill="none" xmlns="http://www.w3.org/2000/svg">
<g clip-path="url(#clip0_2_1411)">
<rect width="48" height="48" fill="#CAF368"/>
<path d="M11.9983 34.498L34.4998 11.9998L69.2853 50.3278L45.5451 71.7769L11.9983 34.498Z" fill="#08472C"/>
<circle cx="24" cy="24" r="16" fill="white"/>
<circle cx="21" cy="24" r="1" fill="white"/>
<circle cx="24" cy="24" r="1" fill="white"/>
<circle cx="27" cy="24" r="1" fill="white"/>
<path d="M17 18.9103C17 17.0268 18.567 15.5 20.5 15.5H27.5C29.433 15.5 31 17.0268 31 18.9103V25.4089C31 26.4598 30.5027 27.452 29.6522 28.0982L26.583 30.4301C26.1577 30.7532 25.9091 31.2493 25.9091 31.7748V34.2564C25.9091 35.1981 25.1256 35.9615 24.1591 35.9615H23.8409C22.8744 35.9615 22.0909 35.1981 22.0909 34.2564V31.7748C22.0909 31.2493 21.8423 30.7532 21.417 30.4301L18.3478 28.0982C17.4973 27.452 17 26.4598 17 25.4089V18.9103Z" fill="#08472C"/>
<path fill-rule="evenodd" clip-rule="evenodd" d="M22.3846 18.7308C21.4925 18.7308 20.7692 19.5017 20.7692 20.4527V23.7339C20.7692 24.2646 20.9987 24.7655 21.3913 25.0918L21.9742 25.5763C22.5129 26.0241 23.1913 26.2692 23.8918 26.2692H24.1082C24.8087 26.2692 25.4871 26.0241 26.0258 25.5763L26.6087 25.0918C27.0013 24.7655 27.2308 24.2646 27.2308 23.7339V20.4527C27.2308 19.5017 26.5075 18.7308 25.6154 18.7308H22.3846Z" fill="white"/>
</g>
<defs>
<clipPath id="clip0_2_1411">
<rect width="48" height="48" fill="white"/>
</clipPath>
</defs>
</svg>
