<svg width="48" height="48" viewBox="0 0 48 48" fill="none" xmlns="http://www.w3.org/2000/svg">
<g clip-path="url(#clip0_2_1420)">
<rect width="48" height="48" fill="#CAF368"/>
<path d="M11.9983 34.498L34.4998 11.9998L69.2853 50.3278L45.5451 71.7769L11.9983 34.498Z" fill="#08472C"/>
<path d="M40 24C40 32.8366 32.8366 40 24 40C15.1634 40 8 32.8366 8 24C8 15.1634 15.1634 8 24 8C32.8366 8 40 15.1634 40 24Z" fill="white"/>
<circle cx="21" cy="24" r="1" fill="white"/>
<circle cx="24" cy="24" r="1" fill="white"/>
<circle cx="27" cy="24" r="1" fill="white"/>
<path fill-rule="evenodd" clip-rule="evenodd" d="M30.7375 32.0071C31.8349 32.0071 32.748 31.0997 32.5 30.0237C31.6075 26.1522 28.159 23.267 24.041 23.267C19.923 23.267 16.4745 26.1522 15.582 30.0237C15.334 31.0997 16.2471 32.0071 17.3445 32.0071H30.7375Z" fill="#08472C"/>
<path d="M28.6688 19.7068C28.6688 22.3062 26.5969 24.4135 24.0412 24.4135C21.4854 24.4135 19.4136 22.3062 19.4136 19.7068C19.4136 17.1073 21.4854 15 24.0412 15C26.5969 15 28.6688 17.1073 28.6688 19.7068Z" fill="#08472C"/>
</g>
<defs>
<clipPath id="clip0_2_1420">
<rect width="48" height="48" fill="white"/>
</clipPath>
</defs>
</svg>
